<svg xmlns="http://www.w3.org/2000/svg" width="25" height="26" viewBox="0 0 25 26">
    <g fill="#FFF" fill-rule="evenodd">
        <path d="M23.717.213L.687 12.839c-.948.515-.91 1.28.087 1.69l2.936 1.216c.991.406 2.495.184 3.34-.505L19.822 4.716c.839-.694.93-.59.199.227L9.925 16.241c-.732.813-.512 1.81.482 2.217l.344.137c.996.404 2.622 1.078 3.61 1.504l3.263 1.384c.993.422 1.8.773 1.804.779 0 .005.005.024.01.024.003.005.237-.878.516-1.954l4.972-19.104c.28-1.075-.266-1.532-1.21-1.015M10.657 19.805l-1.934-1.068c-.85-.465-1.257.082-.903 1.221 0 0 1.795 5.825 1.746 6.034-.053.202 1.725-3.46 1.725-3.46.501-1.03.216-2.261-.634-2.727"/>
    </g>
</svg>
